<?xml version="1.0" encoding="UTF-8" standalone="no"?>
<svg
   xmlns:dc="http://purl.org/dc/elements/1.1/"
   xmlns:cc="http://creativecommons.org/ns#"
   xmlns:rdf="http://www.w3.org/1999/02/22-rdf-syntax-ns#"
   xmlns:svg="http://www.w3.org/2000/svg"
   xmlns="http://www.w3.org/2000/svg"
   version="1.1"
   id="svg2"
   viewBox="0 0 122.252 23.000001"
   height="23"
   width="122.252">
  <defs
     id="defs4" />
  <metadata
     id="metadata7">
    <rdf:RDF>
      <cc:Work
         rdf:about="">
        <dc:format>image/svg+xml</dc:format>
        <dc:type
           rdf:resource="http://purl.org/dc/dcmitype/StillImage" />
        <dc:title></dc:title>
      </cc:Work>
    </rdf:RDF>
  </metadata>
  <g
     transform="translate(0,-1029.3622)"
     id="layer1">
    <g
       transform="translate(-82.540063,0)"
       id="g4151">
      <path
         id="path4147"
         d="m 92.318017,1029.3622 c -2.502411,0 -5.004848,0.9546 -6.914122,2.8639 -3.818551,3.8185 -3.818551,10.0097 0,13.8282 l 1.037194,1.0372 4.148396,4.1484 0.691338,0.6913 c 0.574559,0.5747 1.499827,0.5747 2.074388,0 l 0.691335,-0.6913 3.576311,-3.5763 c 0.208455,-0.2085 0.274197,-0.5243 -0.04445,-0.843 l -2.545055,-2.5452 c -0.548594,-0.5486 -0.751213,-0.6087 -1.450008,-0.4183 -1.666059,0.4486 -3.472275,-0.013 -4.722196,-1.2598 -1.909291,-1.9093 -1.909291,-5.0049 0,-6.9141 0.934349,-0.9344 2.207094,-1.4507 3.528297,-1.4314 1.271771,0.019 2.486245,0.532 3.385635,1.4314 1.268016,1.2695 1.725506,3.1142 1.240548,4.803 -0.156085,0.5013 -0.05304,0.8785 0.242993,1.1745 l 2.797779,2.7978 c 0.13851,0.1386 0.33472,0.1885 0.4635,0.01 2.46679,-3.7902 2.03776,-8.915 -1.287759,-12.2405 -1.909275,-1.9093 -4.411712,-2.8639 -6.914122,-2.8639 z"
         style="opacity:1;fill:#ff672b;fill-opacity:1;stroke:none;stroke-width:40;stroke-linecap:round;stroke-linejoin:round;stroke-miterlimit:4;stroke-dasharray:none;stroke-dashoffset:0;stroke-opacity:1" />
      <g
         transform="translate(-0.4999976,0.49998819)"
         id="text4134"
         style="font-style:normal;font-weight:normal;font-size:17.59729195px;line-height:125%;font-family:sans-serif;letter-spacing:0px;word-spacing:0px;fill:#ffffff;fill-opacity:1;stroke:none;stroke-width:1px;stroke-linecap:butt;stroke-linejoin:miter;stroke-opacity:1">
        <path
           id="path4139"
           style="font-style:normal;font-variant:normal;font-weight:normal;font-stretch:normal;font-size:16.49746323px;font-family:'Fredoka One';-inkscape-font-specification:'Fredoka One';fill:#ffffff;fill-opacity:1"
           d="m 118.32293,1036.9967 q 0.42894,0.8744 0.42894,1.9467 0,1.0723 -0.42894,1.9467 -0.42893,0.8579 -1.10533,1.3693 -1.36929,1.0558 -2.83756,1.0558 h -2.06218 v 1.8642 q 0,0.3795 -0.033,0.5774 -0.0165,0.1815 -0.14848,0.429 -0.23096,0.4454 -1.2868,0.4454 -1.15482,0 -1.35279,-0.6104 -0.099,-0.2805 -0.099,-0.8579 v -9.1561 q 0,-0.3794 0.0165,-0.5609 0.033,-0.1979 0.16498,-0.4454 0.23096,-0.4454 1.2868,-0.4454 h 3.53046 q 1.45177,0 2.82106,1.0558 0.6764,0.5114 1.10533,1.3858 z m -3.92639,3.3985 q 0.49492,0 0.97335,-0.363 0.47842,-0.3629 0.47842,-1.0888 0,-0.7259 -0.47842,-1.0888 -0.47843,-0.3795 -0.98985,-0.3795 h -2.06218 v 2.9201 z" />
        <path
           id="path4141"
           style="font-style:normal;font-variant:normal;font-weight:normal;font-stretch:normal;font-size:16.49746323px;font-family:'Fredoka One';-inkscape-font-specification:'Fredoka One';fill:#ffffff;fill-opacity:1"
           d="m 127.73499,1041.2695 q 0,1.0064 -0.51142,1.5013 -0.49492,0.4784 -1.10533,0.4784 h -3.9099 q 0,0.462 0.54442,0.7754 0.54442,0.3135 1.08883,0.3135 0.95686,0 1.50127,-0.198 l 0.18147,-0.066 q 0.39594,-0.1815 0.6599,-0.1815 0.52792,0 0.90736,0.7424 0.21447,0.4454 0.21447,0.7589 0,1.4683 -3.51396,1.4683 -1.22081,0 -2.17766,-0.4125 -0.94036,-0.4289 -1.46828,-1.1218 -1.03934,-1.3363 -1.03934,-2.986 0,-2.0787 1.3363,-3.316 1.35279,-1.2538 3.36548,-1.2538 2.29315,0 3.36548,1.6167 0.56091,0.8579 0.56091,1.8807 z m -3.48096,0.4785 q 0.6269,0 0.6269,-0.528 0,-0.3794 -0.29695,-0.6104 -0.28046,-0.2309 -0.82487,-0.2309 -0.52792,0 -1.05584,0.4454 -0.52792,0.4289 -0.52792,0.9239 z" />
        <path
           id="path4143"
           style="font-style:normal;font-variant:normal;font-weight:normal;font-stretch:normal;font-size:16.49746323px;font-family:'Fredoka One';-inkscape-font-specification:'Fredoka One';fill:#ffffff;fill-opacity:1"
           d="m 133.68233,1040.8736 -1.07233,-0.066 v 2.2767 q 0,0.4454 0.13198,0.6434 0.14847,0.1979 0.52791,0.1979 0.39594,0 0.59391,0.033 0.21447,0.017 0.44543,0.1485 0.37945,0.2145 0.37945,1.1053 0,1.0394 -0.46193,1.2703 -0.24746,0.1155 -0.44543,0.1485 -0.18148,0.016 -0.54442,0.016 -1.71574,0 -2.6066,-0.7754 -0.89086,-0.7754 -0.89086,-2.6231 v -2.4416 q -0.31345,0.049 -0.6764,0.049 -0.36294,0 -0.6104,-0.2805 -0.23097,-0.2804 -0.23097,-0.9568 0,-0.6764 0.0825,-0.9734 0.0825,-0.3134 0.23096,-0.4454 0.26396,-0.2145 0.6599,-0.2145 l 0.54442,0.066 v -1.6992 q 0,-0.3795 0.0165,-0.5609 0.033,-0.1815 0.16498,-0.396 0.21447,-0.4124 1.2703,-0.4124 1.12183,0 1.3363,0.6104 0.0825,0.264 0.0825,0.8414 v 1.6167 q 0.72588,-0.066 1.08883,-0.066 0.37944,0 0.56091,0.033 0.19797,0.016 0.44543,0.1485 0.42894,0.2145 0.42894,1.2703 0,1.0394 -0.44543,1.2703 -0.24747,0.1155 -0.44544,0.1485 -0.18147,0.016 -0.56091,0.016 z" />
        <path
           id="path4145"
           style="font-style:normal;font-variant:normal;font-weight:normal;font-stretch:normal;font-size:16.49746323px;font-family:'Fredoka One';-inkscape-font-specification:'Fredoka One';fill:#ffffff;fill-opacity:1"
           d="m 141.95117,1038.0525 q 0.31345,0.099 0.51142,0.3465 0.21447,0.2309 0.21447,0.7589 0,0.5279 -0.31346,1.1548 -0.31345,0.6269 -0.90736,0.6269 -0.29695,0 -0.57741,-0.132 -0.26396,-0.132 -0.70939,-0.132 -0.44543,0 -0.84137,0.3135 -0.37944,0.3134 -0.37944,0.7589 v 3.4644 q 0,0.3795 -0.033,0.5774 -0.0165,0.1815 -0.14847,0.429 -0.24746,0.4289 -1.2868,0.4289 -0.79188,0 -1.13833,-0.2805 -0.26396,-0.2309 -0.29695,-0.7093 0,-0.165 0,-0.4785 v -5.7906 q 0,-0.3794 0.0165,-0.5609 0.033,-0.198 0.14848,-0.4289 0.23097,-0.4455 1.2868,-0.4455 0.98985,0 1.23731,0.3795 0.18147,0.2639 0.18147,0.5444 0.0825,-0.1155 0.23097,-0.2805 0.16497,-0.1649 0.6764,-0.4454 0.51142,-0.2804 0.89086,-0.2804 0.39594,0 0.6599,0.049 0.26396,0.033 0.57741,0.132 z" />
        <path
           id="path4148"
           style="font-style:normal;font-variant:normal;font-weight:normal;font-stretch:normal;font-size:16.49746323px;font-family:'Fredoka One';-inkscape-font-specification:'Fredoka One';fill:#ffffff;fill-opacity:1"
           d="m 142.85415,1042.3089 q 0,-1.9797 1.38578,-3.2665 1.38579,-1.2868 3.16752,-1.2868 1.78172,0 3.15101,1.2868 1.36929,1.2703 1.36929,3.25 0,1.3693 -0.70939,2.4416 -0.70939,1.0558 -1.73223,1.5673 -1.00635,0.4949 -2.09518,0.4949 -1.08883,0 -2.11167,-0.5279 -1.02285,-0.5445 -1.73224,-1.5838 -0.69289,-1.0558 -0.69289,-2.3756 z m 3.44797,1.1878 q 0.52792,0.3959 1.07233,0.3959 0.54442,0 1.08884,-0.4124 0.54441,-0.4124 0.54441,-1.2208 0,-0.8084 -0.51142,-1.2043 -0.51142,-0.396 -1.10533,-0.396 -0.59391,0 -1.10533,0.4125 -0.51142,0.4124 -0.51142,1.2208 0,0.7919 0.52792,1.2043 z" />
        <path
           id="path4150"
           style="font-style:normal;font-variant:normal;font-weight:normal;font-stretch:normal;font-size:16.49746323px;font-family:'Fredoka One';-inkscape-font-specification:'Fredoka One';fill:#ffffff;fill-opacity:1"
           d="m 152.99364,1035.3139 q 0,-0.3794 0.0165,-0.5609 0.033,-0.1979 0.14848,-0.4454 0.23096,-0.4454 1.2868,-0.4454 1.00634,0 1.25381,0.4454 0.13198,0.2475 0.14847,0.4454 0.033,0.198 0.033,0.5774 v 7.6384 q 0,0.5939 0.099,0.7589 0.099,0.1484 0.42894,0.1484 0.34644,0 0.46193,0.033 0.11548,0.016 0.28045,0.132 0.32995,0.2145 0.32995,1.1713 0,1.0394 -0.32995,1.2703 -0.42893,0.297 -2.04568,0.099 -1.27031,-0.165 -1.64975,-0.8414 -0.46193,-0.8083 -0.46193,-2.5736 v -7.8528 z" />
        <path
           id="path4152"
           style="font-style:normal;font-variant:normal;font-weight:normal;font-stretch:normal;font-size:16.49746323px;font-family:'Fredoka One';-inkscape-font-specification:'Fredoka One';fill:#ffffff;fill-opacity:1"
           d="m 167.29978,1036.9967 q 0.42893,0.8744 0.42893,1.9467 0,1.0723 -0.42893,1.9467 -0.42894,0.8579 -1.10533,1.3693 -1.36929,1.0558 -2.83757,1.0558 h -2.06218 v 1.8642 q 0,0.3795 -0.033,0.5774 -0.0165,0.1815 -0.14848,0.429 -0.23096,0.4454 -1.2868,0.4454 -1.15482,0 -1.35279,-0.6104 -0.099,-0.2805 -0.099,-0.8579 v -9.1561 q 0,-0.3794 0.0165,-0.5609 0.033,-0.1979 0.16497,-0.4454 0.23097,-0.4454 1.2868,-0.4454 h 3.53046 q 1.45178,0 2.82107,1.0558 0.67639,0.5114 1.10533,1.3858 z m -3.9264,3.3985 q 0.49493,0 0.97335,-0.363 0.47843,-0.3629 0.47843,-1.0888 0,-0.7259 -0.47843,-1.0888 -0.47842,-0.3795 -0.98985,-0.3795 h -2.06218 v 2.9201 z" />
        <path
           id="path4154"
           style="font-style:normal;font-variant:normal;font-weight:normal;font-stretch:normal;font-size:16.49746323px;font-family:'Fredoka One';-inkscape-font-specification:'Fredoka One';fill:#ffffff;fill-opacity:1"
           d="m 174.72054,1038.0525 q 0.31345,0.099 0.51142,0.3465 0.21447,0.2309 0.21447,0.7589 0,0.5279 -0.31345,1.1548 -0.31345,0.6269 -0.90736,0.6269 -0.29696,0 -0.57741,-0.132 -0.26396,-0.132 -0.70939,-0.132 -0.44543,0 -0.84137,0.3135 -0.37945,0.3134 -0.37945,0.7589 v 3.4644 q 0,0.3795 -0.033,0.5774 -0.0165,0.1815 -0.14848,0.429 -0.24746,0.4289 -1.2868,0.4289 -0.79188,0 -1.13832,-0.2805 -0.26396,-0.2309 -0.29696,-0.7093 0,-0.165 0,-0.4785 v -5.7906 q 0,-0.3794 0.0165,-0.5609 0.033,-0.198 0.14848,-0.4289 0.23096,-0.4455 1.2868,-0.4455 0.98985,0 1.23731,0.3795 0.18147,0.2639 0.18147,0.5444 0.0825,-0.1155 0.23096,-0.2805 0.16498,-0.1649 0.6764,-0.4454 0.51142,-0.2804 0.89086,-0.2804 0.39594,0 0.6599,0.049 0.26396,0.033 0.57741,0.132 z" />
        <path
           id="path4156"
           style="font-style:normal;font-variant:normal;font-weight:normal;font-stretch:normal;font-size:16.49746323px;font-family:'Fredoka One';-inkscape-font-specification:'Fredoka One';fill:#ffffff;fill-opacity:1"
           d="m 176.35431,1039.4053 q 0,-0.3794 0.0165,-0.5609 0.033,-0.198 0.14848,-0.4454 0.23096,-0.429 1.2868,-0.429 0.79188,0 1.12183,0.2805 0.28045,0.231 0.29695,0.7094 0.0165,0.165 0.0165,0.4784 v 5.7741 q 0,0.3795 -0.033,0.5774 -0.0165,0.1815 -0.14848,0.429 -0.21446,0.4289 -1.2703,0.4289 -1.03934,0 -1.2703,-0.4454 -0.11549,-0.2475 -0.14848,-0.429 -0.0165,-0.1814 -0.0165,-0.5774 z m 2.70558,-3.052 q -0.11548,0.231 -0.42893,0.3299 -0.31345,0.099 -0.84137,0.099 -0.51142,0 -0.82487,-0.099 -0.31345,-0.099 -0.44543,-0.3464 -0.11549,-0.2475 -0.14848,-0.4289 -0.0165,-0.198 -0.0165,-0.5775 0,-0.3794 0.0165,-0.5609 0.033,-0.1979 0.14848,-0.4289 0.23096,-0.4454 1.2868,-0.4454 1.03934,0 1.2538,0.4454 0.13198,0.2475 0.14848,0.4454 0.033,0.1815 0.033,0.5609 0,0.3795 -0.033,0.5775 -0.0165,0.1814 -0.14848,0.4289 z" />
        <path
           id="path4158"
           style="font-style:normal;font-variant:normal;font-weight:normal;font-stretch:normal;font-size:16.49746323px;font-family:'Fredoka One';-inkscape-font-specification:'Fredoka One';fill:#ffffff;fill-opacity:1"
           d="m 183.29742,1042.3089 q 0,0.6929 0.46193,1.0888 0.46193,0.3794 0.97335,0.3794 0.52792,0 0.97335,-0.2969 0.46193,-0.3135 0.74239,-0.3135 0.49492,0 1.20431,0.8744 0.37945,0.4784 0.37945,0.8579 0,0.6269 -0.90737,1.1713 -0.94035,0.6599 -2.30964,0.6599 -1.53426,0 -2.95305,-1.1053 -0.67639,-0.528 -1.10533,-1.4023 -0.42893,-0.8909 -0.42893,-1.9467 0,-1.0724 0.42893,-1.9302 0.42894,-0.8744 1.10533,-1.4023 1.36929,-1.0888 2.92006,-1.0888 0.6269,0 1.22081,0.1814 0.59391,0.165 0.87436,0.33 l 0.26396,0.165 q 0.29696,0.1979 0.46193,0.3134 0.42894,0.33 0.42894,0.7589 0,0.4124 -0.34645,0.9403 -0.59391,0.9074 -1.13833,0.9074 -0.31345,0 -0.89086,-0.3629 -0.29695,-0.2805 -0.85787,-0.2805 -0.54441,0 -1.02284,0.3959 -0.47843,0.396 -0.47843,1.1054 z" />
        <path
           id="path4160"
           style="font-style:normal;font-variant:normal;font-weight:normal;font-stretch:normal;font-size:16.49746323px;font-family:'Fredoka One';-inkscape-font-specification:'Fredoka One';fill:#ffffff;fill-opacity:1"
           d="m 197.23701,1041.2695 q 0,1.0064 -0.51143,1.5013 -0.49492,0.4784 -1.10533,0.4784 h -3.90989 q 0,0.462 0.54441,0.7754 0.54442,0.3135 1.08883,0.3135 0.95686,0 1.50127,-0.198 l 0.18148,-0.066 q 0.39593,-0.1815 0.65989,-0.1815 0.52792,0 0.90736,0.7424 0.21447,0.4454 0.21447,0.7589 0,1.4683 -3.51396,1.4683 -1.22081,0 -2.17766,-0.4125 -0.94036,-0.4289 -1.46828,-1.1218 -1.03934,-1.3363 -1.03934,-2.986 0,-2.0787 1.3363,-3.316 1.35279,-1.2538 3.36548,-1.2538 2.29315,0 3.36548,1.6167 0.56092,0.8579 0.56092,1.8807 z m -3.48097,0.4785 q 0.6269,0 0.6269,-0.528 0,-0.3794 -0.29695,-0.6104 -0.28046,-0.2309 -0.82487,-0.2309 -0.52792,0 -1.05584,0.4454 -0.52792,0.4289 -0.52792,0.9239 z" />
        <path
           id="path4162"
           style="font-style:normal;font-variant:normal;font-weight:normal;font-stretch:normal;font-size:16.49746323px;font-family:'Fredoka One';-inkscape-font-specification:'Fredoka One';fill:#ffffff;fill-opacity:1"
           d="m 198.36321,1045.8723 q -0.31345,-0.1979 -0.31345,-0.6269 0,-0.4289 0.6269,-1.3033 0.18147,-0.2804 0.57741,-0.2804 0.41244,0 1.10533,0.4124 0.6929,0.3959 1.25381,0.3959 1.00635,0 1.00635,-0.3959 0,-0.3135 -1.10533,-0.4619 -1.03934,-0.1485 -2.06219,-0.7754 -0.47842,-0.297 -0.79188,-0.9239 -0.31345,-0.6434 -0.31345,-1.5177 0,-2.6066 3.57995,-2.6066 1.17132,0 2.40863,0.5609 0.57741,0.2639 0.57741,0.6599 0,0.3959 -0.36294,0.9733 -0.36295,0.5774 -0.74239,0.5774 -0.19797,0 -0.74238,-0.2474 -0.52792,-0.2475 -1.15483,-0.2475 -0.97335,0 -0.97335,0.363 0,0.4949 1.12183,0.6434 1.08883,0.1154 2.11168,0.6269 0.47842,0.2309 0.79188,0.8083 0.32994,0.561 0.32994,1.4188 0,0.8579 -0.32994,1.4683 -0.31346,0.5939 -0.89087,0.8909 -1.05584,0.5114 -2.65609,0.5114 -1.58376,0 -3.05203,-0.9239 z" />
      </g>
    </g>
  </g>
</svg>
